<?xml version="1.0" encoding="utf-8"?>
<!-- Generator: Adobe Illustrator 26.1.0, SVG Export Plug-In . SVG Version: 6.00 Build 0)  -->
<svg version="1.1" id="Calque_1" xmlns="http://www.w3.org/2000/svg" xmlns:xlink="http://www.w3.org/1999/xlink" x="0px" y="0px"
	 viewBox="0 0 50 50" style="enable-background:new 0 0 50 50;" xml:space="preserve">
<style type="text/css">
	.st0{fill:#FFFFFF;}
</style>
<path class="st0" d="M30,11c-3.6,0-7,1.8-9,4.7V36h21.5c4.1,0,7.5-3.4,7.5-7.5S46.6,21,42.5,21c-0.5,0-1,0.1-1.5,0.2
	C40.5,15.5,35.8,11,30,11z M17,16c-0.7,0-1.4,0.1-2,0.2V36h2V16z M18,16v20h2V16.5C19.4,16.3,18.7,16.1,18,16z M14,16.5
	c-0.7,0.3-1.4,0.6-2,1V36h2V16.5z M11,18.3c-0.8,0.7-1.5,1.6-2,2.6V36h2V18.3z M6.5,22c-0.2,0-0.4,0-0.5,0.1v13.8
	C6.3,36,6.7,36,7,36h1V22.1C7.7,22,7.3,22,7,22C6.9,22,6.7,22,6.5,22z M5,22.3c-0.7,0.2-1.4,0.5-2,1v11.4c0.6,0.4,1.3,0.8,2,1V22.3z
	 M2,24.1c-1.2,1.3-2,3-2,4.9s0.8,3.6,2,4.9V24.1z"/>
</svg>
