<svg id="Calque_1" data-name="Calque 1" xmlns="http://www.w3.org/2000/svg" xmlns:xlink="http://www.w3.org/1999/xlink" viewBox="0 0 861.57 702.02"><defs><style>.cls-1{fill:#ea210c;}.cls-2{fill:#ffdd8a;}.cls-3{fill:url(#Dégradé_sans_nom);}.cls-4{fill:#d92129;}.cls-5{fill:#ffc13e;}.cls-6{fill:#c6093f;}.cls-7{fill:#d0495f;}.cls-8{fill:url(#Dégradé_sans_nom_2);}</style><radialGradient id="Dégradé_sans_nom" cx="-331.33" cy="613.53" r="146.31" gradientTransform="translate(-101.39 775.54) rotate(180) scale(0.99 1.02)" gradientUnits="userSpaceOnUse"><stop offset="0" stop-color="#fff"/><stop offset="1" stop-color="#da9346"/></radialGradient><radialGradient id="Dégradé_sans_nom_2" cx="-535.79" cy="373.37" r="430.04" xlink:href="#Dégradé_sans_nom"/></defs><g id="レイヤー_1" data-name="レイヤー 1"><path class="cls-1" d="M623.5,549.4H627a30.81,30.81,0,0,1,22,9.38A32.62,32.62,0,0,1,649,604a30.84,30.84,0,0,1-22,9.37H623.5a30.88,30.88,0,0,1-22-9.37,32.62,32.62,0,0,1,0-45.25,30.85,30.85,0,0,1,22-9.38"/><path class="cls-2" d="M406.91,311.11c0-16.62,1.17-47.78,2.3-77.92,1.14-30.29,2.32-61.62,2.32-78.57,0-16.55.87-32.6,1.71-48.12.86-15.75,1.75-32,1.75-49.06,0-17.21-1.17-21.38-2.95-25.78-.75-1.84-1.68-4.12-1.68-19.21v-.09a8.33,8.33,0,0,0-8.19-8.44h-1.84A590,590,0,0,0,287.6,14.67L280.54,16c-34.17,6.64-69.51,13.5-99.89,26.19A456.74,456.74,0,0,0,92.23,90.91,392.67,392.67,0,0,0,54,121.79c-8.13,7.49-15.89,15.33-23.08,23.31l-.08.09c-3.85,4.28-2.43,11.18,6.24,13.49L398.89,319c2,2.4,8-1.69,8-7.76Z"/><path class="cls-3" d="M410.5,0c0,33.58,4.63,11.4,4.63,45h0c0,33.58-3.46,63.6-3.46,97.18h0c0,33.58-4.63,122.92-4.63,156.5h0l-101.62-45h0l-101.62-45h0l-101.63-45h0c-14.4-6.38-34-14.53-48.38-20.91h0l-13.5-6h0q10.58-11.74,22.52-22.74h0c11.58-10.66,29.26-19,42.59-28.45h0a447.89,447.89,0,0,1,86.82-47.79h0c31.68-13.23,69.33-20,105.37-27.08h0A581,581,0,0,1,408.77,0h1.73Z"/><path class="cls-4" d="M392.86,102.83l-34.19,5.35L340.77,111c-5,.78-10.07,1.25-14.81,3l7.44-3.22a21.18,21.18,0,0,0-3.13,1.72l6.3-5a16.69,16.69,0,0,0-2.46,2.44l4.87-6.48a22.73,22.73,0,0,0-2.07,3.78c1-2.54,2.09-5.09,3.14-7.64-3.84,9.73-6.48,19-14,26.68-7.85,8-17.14,9.93-27.68,10.1-4.3.07-8.59.21-12.89.39-16.65.67-33.27,2.21-49.79,4.46l8.28-1.14q-20.78,2.89-41.3,7.36c-12.87,2.8-25.93,5.73-38.11,10.95l7.44-3.23a72.24,72.24,0,0,0-15.5,9.25l6.3-5c-.18.2-.37.39-.55.58l4.87-6.48a5.49,5.49,0,0,0-.8,1.49q1.57-3.81,3.14-7.64a6.24,6.24,0,0,0-.33,1.6l1.11-8.5,0,.71-1.11-8.51c.06.2.11.4.17.59l-8-14.12.32.41-13.75-8.23.48.17H131.82l.64-.11c8.58-1.49,16.22-1.45,24,3.23a32.11,32.11,0,0,1,14.31,19.12,33,33,0,0,1-3.14,24.66c-3.73,6.55-11,13.39-18.61,14.71-6.16,1.06-11.53,2.19-17.66-.07-8-3-14.56-7.44-18.93-15.11-6.53-11.46-4.88-23.75.13-35.21,3.16-7.21,9.81-11.72,15.88-16.07a65.2,65.2,0,0,1,9.61-5.56c16.79-8.21,34.7-12.52,52.82-16.35a571.64,571.64,0,0,1,112.36-12.4l-22,9.37a14.3,14.3,0,0,0,2.19-2.21L278.52,86a22.46,22.46,0,0,0,2-3.72l-3.14,7.65c3.83-9.9,6.61-20.69,15.17-27.64,6.41-5.2,12.27-8.92,20.35-11a111.2,111.2,0,0,1,11.33-1.93l52.09-8.17c8.66-1.36,16.13-1.51,24,3.23a32.11,32.11,0,0,1,14.31,19.12,33,33,0,0,1-3.14,24.66c-3.68,6.46-11.07,13.52-18.61,14.71"/><path class="cls-5" d="M147.53,174.22C159.67,163.13,165,144,186.46,144a48.08,48.08,0,0,1,17.46,3.21c6.74-33,45.93-58.32,93.26-58.32,21.56,0,41.42,5.25,57.3,14.09L418.78,65,408.22,193.91,415.33,312l-129.5-66.22,1.62-1.1-97.08-39.09a25.29,25.29,0,0,1-3.91-1.12c-28.55-10.66-54.5-16-38.93-30.22"/><path class="cls-5" d="M362.06,278.22c0,43.69,12,79.11,26.82,79.11s26.81-35.42,26.81-79.11-12-79.11-26.81-79.11-26.82,35.42-26.82,79.11"/><path class="cls-5" d="M324,284.44c0,17.68,10.07,32,22.49,32s22.49-14.32,22.49-32-10.07-32-22.49-32S324,266.77,324,284.44"/><path class="cls-6" d="M353.65,203.46c16,0,31-4,42.45-11.37,12.18-7.82,18.89-18.48,18.89-30s-6.71-22.2-18.89-30c-11.42-7.33-26.49-11.37-42.45-11.37s-31,4-42.46,11.37c-12.17,7.82-18.88,18.48-18.88,30s6.71,22.2,18.88,30c11.42,7.33,26.5,11.37,42.46,11.37"/><path class="cls-7" d="M297.49,156.21c0,19.92,25.14,36.07,56.16,36.07s56.15-16.15,56.15-36.07-25.14-36.06-56.15-36.06-56.16,16.14-56.16,36.06"/><path class="cls-8" d="M447.68,87.13C575.07,90.73,688.27,134.85,764,202.39h0c40.13,35.82,69.71,78.22,85.25,124.66h0a236.85,236.85,0,0,1,12.37,75.39h0A236.65,236.65,0,0,1,849.82,476h0C834.45,523.14,804.62,566.2,764,602.5h0c-52.67,47-90.85,57-172,75.52l-43.19,12c-40.58,9.28-42.44,12-87.19,12L430,700.69c-43.36,0-44,.73-83.49-8l-32.92-9.33c-82.73-18.3-32.75-2.67-128-50.67l-85.33-57.33C63.05,542.17,32.31,530.46,16,488h0c-10.44-27.2-9.26-19.79-9.26-49.44L0,402.44a235.13,235.13,0,0,1,5.84-52.07h0C32.36,246.42,39.2,262.43,71,228.89h0l322.78,143h0l38.79,17.19h0V86.9Q440.13,86.92,447.68,87.13Z"/><path class="cls-4" d="M574.33,631.73c-53.46,12.84-109.09,14.68-163.77,16-26.31.63-52.75-.48-78.56-6.19-13.75-3-26.94-8.23-39.59-14.47-10.82-5.34-20.64-12.57-30.49-19.55-9.53-6.75-19.23-13.21-29.9-17.92l7.44,3.22c-16.22-6.91-33.56-10.28-50.11-16.2a165.85,165.85,0,0,1-46.43-25,194.35,194.35,0,0,1-40.82-43c-5.88-8.42-11.65-18.05-14.11-28.14a41.58,41.58,0,0,1-1.27-12.81c.68-8.56,2.12-12,5.41-19.9,1.54-3.7,4.37-6.73,6.08-10.36-1,2.55-2.1,5.09-3.14,7.64a27.87,27.87,0,0,0,1.7-6.29l-1.12,8.51a34,34,0,0,0,0-6.54l1.11,8.5A45,45,0,0,0,94,438.75l3.14,7.64a79.23,79.23,0,0,0-10-16.5L92,436.36c-4.17-5.5-8.41-10.94-12.41-16.58-4.32-6.11-7.2-12.63-9.94-19.66-5-13-4.54-27.43-3.82-41.11l3.9-74.3c.92-17.42,13.48-32,31.15-32,16.28,0,32.05,14.56,31.14,32l-2.58,49q-.62,11.82-1.24,23.64c-.42,8.06-1,16.13-.06,24.17L127,373a47.73,47.73,0,0,0,2.68,10.13c-1-2.55-2.09-5.1-3.14-7.64A80.79,80.79,0,0,0,136.62,392l-4.87-6.48c10.16,13.46,20.09,25.84,24.37,42.73a62.5,62.5,0,0,1-.09,31.33,53.36,53.36,0,0,1-5.95,13.65c-1.62,2.68-3.45,5.11-4.67,8l3.14-7.65a12.25,12.25,0,0,0-.66,2.55q.56-4.26,1.12-8.51a11.57,11.57,0,0,0-.06,2.88L147.84,462a24.54,24.54,0,0,0,1.55,5.59q-1.56-3.83-3.14-7.64A117.84,117.84,0,0,0,159,480.6q-2.43-3.24-4.87-6.47a150.77,150.77,0,0,0,26.57,27.26l-6.3-5a145,145,0,0,0,31.33,18.72l-7.44-3.22c10.89,4.63,22.27,7.71,33.59,11,13.61,3.91,27,8.7,39.58,15.35C292,549,309,565.47,330.33,574.82l-7.44-3.22a163.54,163.54,0,0,0,41.1,11l-8.28-1.14c27.11,3.66,54.52,2.37,81.76,1.37,29.84-1.09,59.71-2.52,89.33-6.6l-8.28,1.14c13.19-1.86,26.29-4.25,39.25-7.36,16.52-4,33.68,5.05,38.31,22.35,4.36,16.31-5.23,35.4-21.75,39.36"/><path class="cls-4" d="M475.32,94.07a109.54,109.54,0,0,1,43.06,19.63c7.3,5.54,14.23,11.31,20.22,18.32s10.58,14.84,15.87,22.34l-4.87-6.48a22.38,22.38,0,0,0,3.47,3.61l-6.3-5a21,21,0,0,0,3.36,1.83l-7.44-3.23a29.54,29.54,0,0,0,5,1.26l-8.28-1.14c12.38,1.66,24.93,2.17,37.33,3.75,15,1.91,29.91,4.17,44.67,7.42a291.13,291.13,0,0,1,74.45,27.37,214.26,214.26,0,0,1,57.41,44.57c19.35,21.4,32.36,46.37,41.9,73.73a291.64,291.64,0,0,1,15.16,67.84c1.93,20.06-1,41.33-7.11,60.42a169.24,169.24,0,0,1-32.64,58.35c-12.37,14.6-28.73,25-40.4,40.28l4.87-6.47c-6.62,8.92-12,18.73-18.52,27.72-10,13.74-21.23,25-36.28,32.86-11.76,6.14-24.23,11-36.33,16.37l-39.4,17.45c-8.06,3.57-15.15,5.73-24,3.23a31.48,31.48,0,0,1-18.61-14.71,33,33,0,0,1-3.14-24.66c1.93-7.17,7.34-16,14.32-19.12l45.46-20.14c14.39-6.37,30.12-11.76,42.75-21.53l-6.31,5a73.27,73.27,0,0,0,11.84-12.47L661.94,519c11.08-14.89,19.52-31.45,32.49-44.89,12.2-12.64,26.36-22.74,37.1-36.91l-4.87,6.48a134.51,134.51,0,0,0,16.39-29.13l-3.14,7.64a138.26,138.26,0,0,0,8.6-32.48l-1.11,8.51a134.47,134.47,0,0,0-.1-34.6q.57,4.26,1.12,8.51a279.68,279.68,0,0,0-18.21-65.94l3.14,7.65a169.48,169.48,0,0,0-20.57-36.47l4.87,6.48A174.9,174.9,0,0,0,688,253.64l6.3,5a212.34,212.34,0,0,0-46.56-27.73l7.44,3.23c-26.22-11.32-54-17.77-82.15-21.72l8.27,1.15c-13.51-1.86-27.07-2.75-40.62-4.2-13-1.38-23.84-4.86-33.51-14.3-5.85-5.72-9.45-13.66-14.28-20.23l4.87,6.48a94.33,94.33,0,0,0-16.1-16.58l6.3,5a93.22,93.22,0,0,0-19.68-11.84l7.44,3.22a91.06,91.06,0,0,0-17-5.36c-16.64-3.48-26-23.41-21.75-39.36A32.11,32.11,0,0,1,451.32,97.3c7.59-4.57,15.59-5,24-3.23"/><path class="cls-5" d="M88.29,356.9l9.21-78.08c-11.1-28.85,16.73-46.77,51.64-15.55L427.62,384.53a15.83,15.83,0,0,1,5,3.42V177c-13.84-33.25,12.12-47.47,32.88-31.47l70.93,16c10.7,0,31.44,21,41.28,35.18q6.5-.5,13.16-.5c74.53,0,134.95,47.36,134.95,105.78q0,4-.38,7.91c28.75,19.4,47,48.13,47,80.19,0,45.4-36.49,84.12-87.73,99.12-5,54.88-63.32,98.2-134.6,98.2a164.39,164.39,0,0,1-64-12.63C461.51,594.66,427.16,607,389.13,607c-53.6,0-99.91-24.49-121.68-60-4.08.29-8.21.45-12.39.45-74.53,0-134.94-47.36-134.94-105.78a83.94,83.94,0,0,1,1.78-17.2c-12.87-11.89-38.82-55-33.61-67.58"/><path class="cls-5" d="M391.92,597.24a16.61,16.61,0,0,0,19.65,13.21l130.06-28a17.06,17.06,0,0,0,12.85-20.2l-5.24-25.75a16.62,16.62,0,0,0-19.66-13.21L399.53,551.28a17.07,17.07,0,0,0-12.86,20.2Z"/><path class="cls-6" d="M323.26,509.28c16,0,31-4,42.46-11.37,12.17-7.82,18.88-18.48,18.88-30s-6.71-22.2-18.88-30c-11.42-7.33-26.5-11.37-42.46-11.37s-31,4-42.45,11.37c-12.18,7.82-18.89,18.48-18.89,30s6.71,22.2,18.89,30c11.42,7.33,26.49,11.37,42.45,11.37"/><path class="cls-7" d="M267.11,462c0,19.92,25.14,36.07,56.15,36.07S379.42,482,379.42,462,354.28,426,323.26,426,267.11,442.11,267.11,462"/><path class="cls-6" d="M604.92,509.55c16,0,31-4,42.45-11.37,12.18-7.82,18.88-18.49,18.88-30s-6.7-22.2-18.88-30c-11.42-7.34-26.5-11.37-42.45-11.37s-31,4-42.46,11.37c-12.18,7.82-18.88,18.48-18.88,30s6.7,22.2,18.88,30c11.42,7.33,26.5,11.37,42.46,11.37"/><path class="cls-7" d="M548.76,462.3c0,19.92,25.14,36.06,56.15,36.06s56.16-16.14,56.16-36.06-25.14-36.07-56.16-36.07-56.15,16.15-56.15,36.07"/><path class="cls-6" d="M535.79,294.1c16,0,31-4,42.46-11.37,12.17-7.82,18.88-18.48,18.88-30s-6.71-22.2-18.88-30c-11.42-7.33-26.5-11.37-42.46-11.37s-31,4-42.45,11.37c-12.18,7.82-18.89,18.48-18.89,30s6.71,22.2,18.89,30c11.41,7.33,26.49,11.37,42.45,11.37"/><path class="cls-7" d="M479.64,246.85c0,19.92,25.14,36.07,56.15,36.07S592,266.77,592,246.85s-25.14-36.06-56.16-36.06-56.15,16.14-56.15,36.06"/><path class="cls-6" d="M168,366.26c16,0,31-4,42.46-11.38,12.18-7.82,18.88-18.48,18.88-30s-6.7-22.19-18.88-30c-11.42-7.34-26.5-11.38-42.46-11.38s-31,4-42.45,11.38c-12.18,7.82-18.89,18.48-18.89,30s6.71,22.2,18.89,30C137,362.22,152,366.26,168,366.26"/><path class="cls-7" d="M111.83,319c0,19.91,25.14,36.06,56.15,36.06s56.16-16.15,56.16-36.06S199,282.94,168,282.94,111.83,299.09,111.83,319"/></g></svg>